<svg width="22" height="22" viewBox="0 0 22 22" fill="none" xmlns="http://www.w3.org/2000/svg">
<g clip-path="url(#clip0_371_5)">
<mask id="path-1-inside-1_371_5" fill="white">
<path d="M11.6875 8.25C11.6875 7.87031 11.3797 7.5625 11 7.5625C10.6203 7.5625 10.3125 7.87031 10.3125 8.25V10.3125H8.25C7.87031 10.3125 7.5625 10.6203 7.5625 11C7.5625 11.3797 7.87031 11.6875 8.25 11.6875H10.3125V13.75C10.3125 14.1297 10.6203 14.4375 11 14.4375C11.3797 14.4375 11.6875 14.1297 11.6875 13.75V11.6875H13.75C14.1297 11.6875 14.4375 11.3797 14.4375 11C14.4375 10.6203 14.1297 10.3125 13.75 10.3125H11.6875V8.25Z"/>
</mask>
<path d="M11.6875 8.25C11.6875 7.87031 11.3797 7.5625 11 7.5625C10.6203 7.5625 10.3125 7.87031 10.3125 8.25V10.3125H8.25C7.87031 10.3125 7.5625 10.6203 7.5625 11C7.5625 11.3797 7.87031 11.6875 8.25 11.6875H10.3125V13.75C10.3125 14.1297 10.6203 14.4375 11 14.4375C11.3797 14.4375 11.6875 14.1297 11.6875 13.75V11.6875H13.75C14.1297 11.6875 14.4375 11.3797 14.4375 11C14.4375 10.6203 14.1297 10.3125 13.75 10.3125H11.6875V8.25Z" fill="black"/>
<path d="M10.3125 10.3125V13.3125H13.3125V10.3125H10.3125ZM10.3125 11.6875H13.3125V8.6875H10.3125V11.6875ZM11.6875 11.6875V8.6875H8.6875V11.6875H11.6875ZM11.6875 10.3125H8.6875V13.3125H11.6875V10.3125ZM14.6875 8.25C14.6875 6.21343 13.0365 4.5625 11 4.5625V10.5625C9.72286 10.5625 8.6875 9.52719 8.6875 8.25H14.6875ZM11 4.5625C8.96349 4.5625 7.3125 6.21343 7.3125 8.25H13.3125C13.3125 9.52719 12.2771 10.5625 11 10.5625V4.5625ZM7.3125 8.25V10.3125H13.3125V8.25H7.3125ZM10.3125 7.3125H8.25V13.3125H10.3125V7.3125ZM8.25 7.3125C6.21343 7.3125 4.5625 8.96349 4.5625 11H10.5625C10.5625 12.2771 9.52719 13.3125 8.25 13.3125V7.3125ZM4.5625 11C4.5625 13.0365 6.21343 14.6875 8.25 14.6875V8.6875C9.52719 8.6875 10.5625 9.72286 10.5625 11H4.5625ZM8.25 14.6875H10.3125V8.6875H8.25V14.6875ZM7.3125 11.6875V13.75H13.3125V11.6875H7.3125ZM7.3125 13.75C7.3125 15.7865 8.96346 17.4375 11 17.4375V11.4375C12.2772 11.4375 13.3125 12.4728 13.3125 13.75H7.3125ZM11 17.4375C13.0365 17.4375 14.6875 15.7865 14.6875 13.75H8.6875C8.6875 12.4728 9.72283 11.4375 11 11.4375V17.4375ZM14.6875 13.75V11.6875H8.6875V13.75H14.6875ZM11.6875 14.6875H13.75V8.6875H11.6875V14.6875ZM13.75 14.6875C15.7865 14.6875 17.4375 13.0365 17.4375 11H11.4375C11.4375 9.72283 12.4728 8.6875 13.75 8.6875V14.6875ZM17.4375 11C17.4375 8.96346 15.7865 7.3125 13.75 7.3125V13.3125C12.4728 13.3125 11.4375 12.2772 11.4375 11H17.4375ZM13.75 7.3125H11.6875V13.3125H13.75V7.3125ZM14.6875 10.3125V8.25H8.6875V10.3125H14.6875Z" fill="black" mask="url(#path-1-inside-1_371_5)"/>
<path fill-rule="evenodd" clip-rule="evenodd" d="M11.0526 1.14584H10.9474C8.83137 1.14583 7.17307 1.14583 5.87921 1.31978C4.55487 1.49783 3.50985 1.8694 2.68961 2.68964C1.86937 3.50988 1.4978 4.5549 1.31975 5.87924C1.14579 7.1731 1.1458 8.83138 1.14581 10.9474V11.0526C1.1458 13.1687 1.14579 14.8269 1.31975 16.1208C1.4978 17.4451 1.86937 18.4902 2.68961 19.3104C3.50985 20.1307 4.55487 20.5022 5.87921 20.6803C7.17307 20.8542 8.83136 20.8542 10.9474 20.8542H11.0526C13.1686 20.8542 14.8269 20.8542 16.1208 20.6803C17.4451 20.5022 18.4902 20.1307 19.3104 19.3104C20.1306 18.4902 20.5021 17.4451 20.6803 16.1208C20.8541 14.8269 20.8541 13.1687 20.8541 11.0526V10.9474C20.8541 8.83139 20.8541 7.1731 20.6803 5.87924C20.5021 4.5549 20.1306 3.50988 19.3104 2.68964C18.4902 1.8694 17.4451 1.49783 16.1208 1.31978C14.8269 1.14583 13.1686 1.14583 11.0526 1.14584ZM3.66188 3.66191C4.18406 3.13972 4.89055 2.84007 6.06243 2.68252C7.25408 2.5223 8.81994 2.52084 11 2.52084C13.18 2.52084 14.7458 2.5223 15.9375 2.68252C17.1094 2.84007 17.8159 3.13972 18.3381 3.66191C18.8603 4.18409 19.16 4.89058 19.3174 6.06246C19.4777 7.25411 19.4791 8.81997 19.4791 11C19.4791 13.18 19.4777 14.7459 19.3174 15.9375C19.16 17.1094 18.8603 17.8159 18.3381 18.3381C17.8159 18.8603 17.1094 19.16 15.9375 19.3175C14.7458 19.4777 13.18 19.4792 11 19.4792C8.81994 19.4792 7.25408 19.4777 6.06243 19.3175C4.89055 19.16 4.18406 18.8603 3.66188 18.3381C3.13969 17.8159 2.84004 17.1094 2.68249 15.9375C2.52227 14.7459 2.52081 13.18 2.52081 11C2.52081 8.81997 2.52227 7.25411 2.68249 6.06246C2.84004 4.89058 3.13969 4.18409 3.66188 3.66191Z" fill="black" stroke="black" stroke-width="0.5"/>
</g>
<defs>
<clipPath id="clip0_371_5">
<rect width="22" height="22" fill="white"/>
</clipPath>
</defs>
</svg>
