<svg width="22" height="22" viewBox="0 0 22 22" fill="none" xmlns="http://www.w3.org/2000/svg">
<path d="M11.0001 15.4444C13.4547 15.4444 15.4446 13.4545 15.4446 11C15.4446 8.54539 13.4547 6.55554 11.0001 6.55554C8.54551 6.55554 6.55566 8.54539 6.55566 11C6.55566 13.4545 8.54551 15.4444 11.0001 15.4444Z" stroke="black" stroke-width="1.5" stroke-linecap="round" stroke-linejoin="round"/>
<path d="M1 15.4444V6.55556C1 3.48731 3.48731 1 6.55556 1H15.4444C18.5127 1 21 3.48731 21 6.55556V15.4444C21 18.5127 18.5127 21 15.4444 21H6.55556C3.48731 21 1 18.5127 1 15.4444Z" stroke="black" stroke-width="1.5"/>
<path d="M17.1111 4.90004L17.1222 4.8877" stroke="black" stroke-width="1.5" stroke-linecap="round" stroke-linejoin="round"/>
</svg>
